<svg width="32" height="32" viewBox="0 0 32 32" fill="none" xmlns="http://www.w3.org/2000/svg">
<path d="M30 28.2222V13.1111C30 12.8351 29.9367 12.5629 29.8152 12.3161C29.6937 12.0692 29.5173 11.8545 29.3 11.6889L17.05 2.35556C16.7471 2.12476 16.3786 2 16 2C15.6214 2 15.2529 2.12476 14.95 2.35556L2.7 11.6889C2.48266 11.8545 2.30625 12.0692 2.18475 12.3161C2.06325 12.5629 2 12.8351 2 13.1111V28.2222C2 28.6937 2.18437 29.1459 2.51256 29.4793C2.84075 29.8127 3.28587 30 3.75 30H10.75C11.2141 30 11.6592 29.8127 11.9874 29.4793C12.3156 29.1459 12.5 28.6937 12.5 28.2222V22.8889C12.5 22.4174 12.6844 21.9652 13.0126 21.6318C13.3408 21.2984 13.7859 21.1111 14.25 21.1111H17.75C18.2141 21.1111 18.6592 21.2984 18.9874 21.6318C19.3156 21.9652 19.5 22.4174 19.5 22.8889V28.2222C19.5 28.6937 19.6844 29.1459 20.0126 29.4793C20.3408 29.8127 20.7859 30 21.25 30H28.25C28.7141 30 29.1592 29.8127 29.4874 29.4793C29.8156 29.1459 30 28.6937 30 28.2222Z" stroke="#A9CCEE" stroke-width="4" stroke-linecap="round" stroke-linejoin="round"/>
</svg>
