<svg width="32" height="32" viewBox="0 0 32 32" fill="none" xmlns="http://www.w3.org/2000/svg">
<path d="M26.5 22.2471C28.6788 23.07 30 24.1495 30 25.3333C30 27.9108 23.7315 30 16 30C8.2685 30 2 27.9108 2 25.3333C2 24.1511 3.32125 23.0684 5.5 22.2471" stroke="#A9CCEE" stroke-width="4" stroke-linecap="round" stroke-linejoin="round"/>
<path d="M16 23.7778C16 23.7778 24.75 15.2798 24.75 10.4684C24.75 5.65867 20.8317 2 16 2C11.1683 2 7.25 5.65711 7.25 10.4684C7.25 15.2798 16 23.7778 16 23.7778Z" stroke="#A9CCEE" stroke-width="4" stroke-linecap="round" stroke-linejoin="round"/>
<path d="M16 11.3334C16.9665 11.3334 17.75 10.637 17.75 9.77785C17.75 8.91874 16.9665 8.22229 16 8.22229C15.0335 8.22229 14.25 8.91874 14.25 9.77785C14.25 10.637 15.0335 11.3334 16 11.3334Z" stroke="#A9CCEE" stroke-width="4" stroke-linecap="round" stroke-linejoin="round"/>
</svg>
