<svg width="155" height="139" viewBox="0 0 155 139" fill="none" xmlns="http://www.w3.org/2000/svg">
<path d="M57.0605 45.2091C57.5028 45.2091 57.9371 45.2091 58.3713 45.1206C65.9626 44.0913 70.6992 34.2965 68.9863 23.2312C67.3538 12.8011 60.5667 5.00073 53.4498 5.00073C53.0075 5.00073 52.5733 5.00073 52.139 5.08919C44.5477 6.11852 39.8111 15.9133 41.524 26.9786C43.1645 37.3765 49.9517 45.2091 57.0686 45.2091M99.0863 81.3966C90.2404 65.3132 87.4982 61.2924 77.3738 61.2924C67.2493 61.2924 63.4134 67.3639 54.5676 83.3829C46.9923 97.0778 31.681 98.2197 27.8612 109.848C27.0812 111.979 26.6952 115.292 26.7113 117.584C26.7113 127.041 33.0401 133.667 41.1863 133.667C51.3107 133.667 65.3113 125.626 77.3738 125.626C89.4363 125.626 103.437 133.667 113.561 133.667C121.707 133.667 128.036 127.049 128.036 117.584C128.036 115.292 127.642 111.979 126.862 109.848C123.042 98.1795 106.662 95.0915 99.0863 81.3966ZM143.219 37.8268C142.189 37.3816 141.076 37.1569 139.954 37.1674H139.833C133.923 37.2639 127.288 43.1986 123.806 52.1731C119.633 62.9088 121.555 73.8856 128.133 76.7163C129.184 77.1559 130.272 77.3757 131.398 77.3757C137.34 77.3757 144.063 71.4088 147.569 62.37C151.719 51.6344 149.757 40.6575 143.219 37.8268ZM113.207 26.9786C114.928 15.9133 110.192 6.11852 102.592 5.08919C102.161 5.02444 101.726 4.99485 101.29 5.00073C94.1728 5.00073 87.3937 12.8011 85.7693 23.2312C84.0483 34.2965 88.7849 44.0913 96.3843 45.1206C96.8185 45.1742 97.2528 45.2037 97.687 45.2091C104.804 45.2091 111.599 37.3765 113.207 26.9786ZM26.6308 76.7163C33.1928 73.8856 35.1068 62.8927 30.9412 52.1731C27.435 43.1343 20.7202 37.1674 14.7855 37.1674C13.6543 37.1674 12.5633 37.3872 11.5125 37.8268C4.95051 40.6575 3.0366 51.6504 7.20218 62.37C10.7083 71.4088 17.4231 77.3757 23.3579 77.3757C24.4891 77.3757 25.5801 77.1559 26.6308 76.7163Z" stroke="#2E6D99" stroke-opacity="0.5" stroke-width="10" stroke-linecap="round" stroke-linejoin="round"/>
</svg>
