<svg width="25" height="25" viewBox="0 0 25 25" fill="none" xmlns="http://www.w3.org/2000/svg">
<path d="M24.7093 8.09799C24.4202 7.30544 23.9399 6.734 23.32 6.44619L23.3117 6.44258C23.0295 6.31516 22.7292 6.24994 22.4261 6.2503H22.3928C20.9739 6.27494 19.5252 7.66596 18.7887 9.71194C18.2485 11.2081 18.1865 12.8173 18.623 14.0166C18.9116 14.8098 19.3929 15.3812 20.0154 15.669L20.0222 15.672C20.3043 15.7994 20.6047 15.8647 20.9077 15.8643C22.3402 15.8643 23.8039 14.4733 24.554 12.4003C25.0875 10.9059 25.1463 9.29794 24.7093 8.09799ZM19.0397 16.9224C18.2214 16.3552 17.4479 15.8186 16.9426 14.8548C15.5486 12.1869 14.7068 10.5766 12.4998 10.5766C10.2927 10.5766 9.44883 12.1869 8.05176 14.8548C7.54544 15.8198 6.77034 16.357 5.94939 16.9266C5.00811 17.5792 4.03558 18.2534 3.61573 19.5801C3.45248 20.0584 3.37025 20.5683 3.37351 21.0823C3.37351 23.2424 4.83205 25 6.62396 25C7.54857 25 8.53256 24.6305 9.57385 24.2393C10.575 23.8631 11.6101 23.4744 12.505 23.4744C13.3999 23.4744 14.4323 23.8631 15.4299 24.2393C16.4691 24.6281 17.4484 24.9976 18.3756 24.9976C20.1649 24.9976 21.6208 23.24 21.6208 21.0799C21.6223 20.5655 21.5383 20.0556 21.3734 19.5777C20.9535 18.2498 19.9805 17.575 19.0397 16.9224ZM6.97818 8.46453C7.59806 9.36163 8.38462 9.85555 9.19307 9.85555C9.30343 9.85552 9.41364 9.84608 9.5228 9.82731C11.209 9.54129 12.2596 7.16784 11.9148 4.41944C11.7705 3.26395 11.385 2.18779 10.8329 1.38982C10.214 0.49452 9.42643 0.00120178 8.61851 0.00120178C8.50815 0.00123223 8.39793 0.0106717 8.28878 0.029443C6.60261 0.315459 5.55194 2.68892 5.89678 5.43732C6.04055 6.591 6.42602 7.66596 6.97818 8.46453ZM15.4773 9.82731C15.5864 9.84608 15.6966 9.85552 15.807 9.85555C16.616 9.85555 17.402 9.36163 18.0219 8.46453C18.5735 7.66596 18.9569 6.591 19.1028 5.43612C19.4476 2.68892 18.3969 0.315459 16.7108 0.0282412C16.6016 0.00946994 16.4914 3.04479e-05 16.381 0C15.5731 0.00120175 14.7855 0.49452 14.1667 1.38982C13.6145 2.18779 13.229 3.26395 13.0853 4.42064C12.7404 7.16784 13.7911 9.54129 15.4773 9.82731ZM4.97738 15.672L4.98467 15.669C5.60611 15.3812 6.08691 14.8104 6.37497 14.0178C6.81149 12.8161 6.75002 11.2087 6.21088 9.71254C5.46443 7.64193 4.0012 6.2503 2.57028 6.2503C2.26726 6.2498 1.96686 6.31502 1.68474 6.44258L1.67745 6.44558C1.05757 6.731 0.576773 7.30423 0.288713 8.09679C-0.147806 9.29854 -0.0863391 10.9059 0.452798 12.4021C1.19926 14.4727 2.66248 15.8643 4.0934 15.8643C4.3959 15.8646 4.69575 15.7994 4.97738 15.672Z" fill="#2E6D99" fill-opacity="0.5"/>
</svg>
