<svg width="32" height="32" viewBox="0 0 32 32" fill="none" xmlns="http://www.w3.org/2000/svg">
<path d="M13.1886 18.8114L30 2M30 2L2.49039 11.934C2.34407 12.0011 2.22007 12.1087 2.13314 12.2442C2.04621 12.3797 2 12.5372 2 12.6982C2 12.8591 2.04621 13.0167 2.13314 13.1522C2.22007 13.2876 2.34407 13.3953 2.49039 13.4623L13.1886 18.8114L18.5377 29.5096C18.6047 29.6559 18.7124 29.7799 18.8478 29.8669C18.9833 29.9538 19.1409 30 19.3018 30C19.4628 30 19.6203 29.9538 19.7558 29.8669C19.8913 29.7799 19.9989 29.6559 20.066 29.5096L30 2Z" stroke="#A9CCEE" stroke-width="4" stroke-linecap="round" stroke-linejoin="round"/>
</svg>
